# Blender v2.79 (sub 0) OBJ File: 'Sword.blend'
# www.blender.org
mtllib dragonslayerv3.mtl
o cube
v 0.062500 -0.076705 0.226385
v -0.062500 -0.076705 0.226385
v -0.062500 -0.076705 -0.242365
v 0.062500 -0.076705 -0.242365
v 0.062500 0.048295 0.226385
v 0.062500 0.048295 -0.242365
v -0.062500 0.048295 0.226385
v -0.062500 0.048295 -0.242365
v 0.062500 0.048295 0.226385
v -0.062500 0.048295 0.226385
v -0.062500 0.048295 0.226385
v 0.062500 0.048295 0.226385
v 0.062500 0.221522 0.154632
v 0.062500 0.221522 0.154632
v -0.062500 0.221522 0.154632
v -0.062500 0.221522 0.154632
v 0.062500 0.221522 0.154632
v -0.062500 0.221522 0.154632
v -0.062500 0.221522 0.154632
v 0.062500 0.221522 0.154632
v 0.062500 0.452492 0.250303
v 0.062500 0.452492 0.250303
v -0.062500 0.452492 0.250303
v -0.062500 0.452492 0.250303
v 0.078125 -0.092330 0.382635
v -0.078125 -0.092330 0.382635
v -0.078125 -0.092330 0.226385
v 0.078125 -0.092330 0.226385
v 0.078125 0.063920 0.382635
v 0.078125 0.063920 0.226385
v -0.078125 0.063920 0.382635
v -0.078125 0.063920 0.226385
v 0.125000 0.173295 -0.242365
v -0.125000 0.173295 -0.242365
v -0.125000 0.173295 -0.429865
v 0.125000 0.173295 -0.429865
v 0.125000 0.235795 -0.242365
v 0.125000 0.235795 -0.429865
v -0.125000 0.235795 -0.242365
v -0.125000 0.235795 -0.429865
v 0.125000 -0.264205 -0.242365
v -0.125000 -0.264205 -0.242365
v -0.125000 -0.264205 -0.429865
v 0.125000 -0.264205 -0.429865
v 0.125000 -0.201705 -0.242365
v 0.125000 -0.201705 -0.429865
v -0.125000 -0.201705 -0.242365
v -0.125000 -0.201705 -0.429865
v 0.062500 -0.326705 -0.304865
v -0.062500 -0.326705 -0.304865
v -0.062500 -0.326705 -2.418928
v 0.062500 -0.326705 -2.418928
v 0.062500 -0.201705 -0.304865
v 0.062500 -0.201705 -2.418928
v -0.062500 -0.201705 -0.304865
v -0.062500 -0.201705 -2.418928
v 0.031250 -0.201705 -0.492365
v -0.031250 -0.201705 -0.492365
v -0.031250 -0.201705 -2.367365
v 0.031250 -0.201705 -2.367365
v 0.031250 0.173295 -0.492365
v 0.031250 0.173295 -2.367365
v -0.031250 0.173295 -0.492365
v -0.031250 0.173295 -2.367365
v 0.029687 -0.201705 -2.367365
v -0.029687 -0.201705 -2.367365
v -0.029687 -0.013880 -2.555190
v 0.029687 -0.013880 -2.555190
v 0.029687 -0.013880 -2.179540
v 0.029687 0.173945 -2.367365
v -0.029687 -0.013880 -2.179540
v -0.029687 0.173945 -2.367365
v 0.062500 -0.013880 -2.555190
v -0.062500 -0.013880 -2.555190
v -0.062500 0.074508 -2.643579
v 0.062500 0.074508 -2.643579
v 0.062500 0.210405 -2.330905
v 0.062500 0.298794 -2.419293
v -0.062500 0.210405 -2.330905
v -0.062500 0.298794 -2.419293
v 0.062500 -0.326554 -2.419293
v -0.062500 -0.326554 -2.419293
v -0.062500 -0.013880 -2.731967
v 0.062500 -0.013880 -2.731967
v 0.062500 -0.238165 -2.330905
v 0.062500 0.074508 -2.643579
v -0.062500 -0.238165 -2.330905
v -0.062500 0.074508 -2.643579
v 0.062500 0.173295 -0.304865
v -0.062500 0.173295 -0.304865
v -0.062500 0.173295 -2.418928
v 0.062500 0.173295 -2.418928
v 0.062500 0.298295 -0.304865
v 0.062500 0.298295 -2.418928
v -0.062500 0.298295 -0.304865
v -0.062500 0.298295 -2.418928
v 0.125000 -0.201705 -0.242365
v -0.125000 -0.201705 -0.242365
v -0.125000 -0.201705 -0.304865
v 0.125000 -0.201705 -0.304865
v 0.125000 0.173295 -0.242365
v 0.125000 0.173295 -0.304865
v -0.125000 0.173295 -0.242365
v -0.125000 0.173295 -0.304865
v 0.062500 -0.201705 -0.304865
v -0.062500 -0.201705 -0.304865
v -0.062500 -0.201705 -0.492365
v 0.062500 -0.201705 -0.492365
v 0.062500 0.173295 -0.304865
v 0.062500 0.173295 -0.492365
v -0.062500 0.173295 -0.304865
v -0.062500 0.173295 -0.492365
v 0.125000 -0.076705 -0.367365
v 0.062500 -0.076705 -0.367365
v 0.062500 -0.076705 -0.429865
v 0.125000 -0.076705 -0.429865
v 0.125000 0.048295 -0.367365
v 0.125000 0.048295 -0.429865
v 0.062500 0.048295 -0.367365
v 0.062500 0.048295 -0.429865
v 0.172835 -0.076705 -0.251880
v 0.172835 -0.076705 -0.251880
v 0.125000 -0.076705 -0.367365
v 0.125000 -0.076705 -0.367365
v 0.172835 0.048295 -0.251880
v 0.125000 0.048295 -0.367365
v 0.172835 0.048295 -0.251880
v 0.125000 0.048295 -0.367365
v 0.125000 -0.219859 -0.385822
v -0.125000 -0.219859 -0.385822
v -0.125000 -0.264053 -0.430017
v 0.125000 -0.264053 -0.430017
v 0.125000 -0.095011 -0.510671
v 0.125000 -0.139205 -0.554865
v -0.125000 -0.095011 -0.510671
v -0.125000 -0.139205 -0.554865
v 0.125000 0.066601 -0.510671
v -0.125000 0.066601 -0.510671
v -0.125000 0.110795 -0.554865
v 0.125000 0.110795 -0.554865
v 0.125000 0.191449 -0.385823
v 0.125000 0.235644 -0.430017
v -0.125000 0.191449 -0.385823
v -0.125000 0.235644 -0.430017
v 0.125000 -0.139205 -0.492365
v -0.125000 -0.139205 -0.492365
v -0.125000 -0.139205 -0.554865
v 0.125000 -0.139205 -0.554865
v 0.125000 0.110795 -0.492365
v 0.125000 0.110795 -0.554865
v -0.125000 0.110795 -0.492365
v -0.125000 0.110795 -0.554865
vt 0.468750 0.734375
vt 0.500000 0.734375
vt 0.500000 0.859375
vt 0.468750 0.859375
vt 0.156250 0.406250
vt 0.187500 0.406250
vt 0.187500 0.531250
vt 0.156250 0.531250
vt 0.468750 0.609375
vt 0.500000 0.609375
vt 0.500000 0.734375
vt 0.468750 0.734375
vt 0.468750 0.484375
vt 0.500000 0.484375
vt 0.500000 0.609375
vt 0.468750 0.609375
vt 0.468750 0.421875
vt 0.437500 0.421875
vt 0.437500 0.390625
vt 0.468750 0.390625
vt 0.625000 0.953125
vt 0.593750 0.953125
vt 0.593750 0.984375
vt 0.625000 0.984375
vt 0.000000 1.000000
vt 0.031250 1.000000
vt 0.031250 1.000000
vt 0.000000 1.000000
vt 0.000000 1.000000
vt 0.046875 1.000000
vt 0.046875 1.000000
vt 0.000000 1.000000
vt 0.000000 1.000000
vt 0.031250 1.000000
vt 0.031250 1.000000
vt 0.000000 1.000000
vt 0.000000 1.000000
vt 0.046875 1.000000
vt 0.046875 1.000000
vt 0.000000 1.000000
vt 0.593750 0.656250
vt 0.562500 0.656250
vt 0.562500 0.609375
vt 0.593750 0.609375
vt 0.218750 0.375000
vt 0.187500 0.375000
vt 0.187500 0.421875
vt 0.218750 0.421875
vt 0.000000 1.000000
vt 0.031250 1.000000
vt 0.031250 1.000000
vt 0.000000 1.000000
vt 0.000000 1.000000
vt 0.062500 1.000000
vt 0.062500 1.000000
vt 0.000000 1.000000
vt 0.000000 1.000000
vt 0.031250 1.000000
vt 0.031250 1.000000
vt 0.000000 1.000000
vt 0.000000 1.000000
vt 0.062500 1.000000
vt 0.062500 1.000000
vt 0.000000 1.000000
vt 0.593750 0.718750
vt 0.562500 0.718750
vt 0.562500 0.656250
vt 0.593750 0.656250
vt 0.593750 0.390625
vt 0.562500 0.390625
vt 0.562500 0.453125
vt 0.593750 0.453125
vt 0.000000 0.390625
vt 0.046875 0.390625
vt 0.046875 0.437500
vt 0.000000 0.437500
vt 0.093750 0.390625
vt 0.140625 0.390625
vt 0.140625 0.437500
vt 0.093750 0.437500
vt 0.562500 0.859375
vt 0.609375 0.859375
vt 0.609375 0.906250
vt 0.562500 0.906250
vt 0.562500 0.812500
vt 0.609375 0.812500
vt 0.609375 0.859375
vt 0.562500 0.859375
vt 0.609375 0.812500
vt 0.562500 0.812500
vt 0.562500 0.765625
vt 0.609375 0.765625
vt 0.609375 0.718750
vt 0.562500 0.718750
vt 0.562500 0.765625
vt 0.609375 0.765625
vt 0.093750 0.437500
vt 0.156250 0.437500
vt 0.156250 0.484375
vt 0.093750 0.484375
vt 0.031250 0.343750
vt 0.046875 0.343750
vt 0.046875 0.390625
vt 0.031250 0.390625
vt 0.531250 0.953125
vt 0.593750 0.953125
vt 0.593750 1.000000
vt 0.531250 1.000000
vt 0.125000 0.343750
vt 0.140625 0.343750
vt 0.140625 0.390625
vt 0.125000 0.390625
vt 0.656250 0.953125
vt 0.593750 0.953125
vt 0.593750 0.937500
vt 0.656250 0.937500
vt 0.656250 0.921875
vt 0.593750 0.921875
vt 0.593750 0.937500
vt 0.656250 0.937500
vt 0.531250 0.906250
vt 0.593750 0.906250
vt 0.593750 0.953125
vt 0.531250 0.953125
vt 0.609375 0.609375
vt 0.625000 0.609375
vt 0.625000 0.656250
vt 0.609375 0.656250
vt 0.187500 0.421875
vt 0.250000 0.421875
vt 0.250000 0.468750
vt 0.187500 0.468750
vt 0.609375 0.562500
vt 0.625000 0.562500
vt 0.625000 0.609375
vt 0.609375 0.609375
vt 0.656250 0.921875
vt 0.593750 0.921875
vt 0.593750 0.906250
vt 0.656250 0.906250
vt 0.343750 0.390625
vt 0.281250 0.390625
vt 0.281250 0.406250
vt 0.343750 0.406250
vt 0.187500 0.468750
vt 0.218750 0.468750
vt 0.218750 1.000000
vt 0.187500 1.000000
vt 0.218750 0.468750
vt 0.250000 0.468750
vt 0.250000 1.000000
vt 0.218750 1.000000
vt 0.250000 0.468750
vt 0.281250 0.468750
vt 0.281250 1.000000
vt 0.250000 1.000000
vt 0.281250 0.468750
vt 0.312500 0.468750
vt 0.312500 1.000000
vt 0.281250 1.000000
vt 0.187500 0.406250
vt 0.156250 0.406250
vt 0.156250 0.375000
vt 0.187500 0.375000
vt 0.625000 0.687500
vt 0.593750 0.687500
vt 0.593750 0.718750
vt 0.625000 0.718750
vt 0.437500 0.531250
vt 0.453125 0.531250
vt 0.453125 1.000000
vt 0.437500 1.000000
vt 0.000000 0.531250
vt 0.093750 0.531250
vt 0.093750 1.000000
vt 0.000000 1.000000
vt 0.453125 0.531250
vt 0.468750 0.531250
vt 0.468750 1.000000
vt 0.453125 1.000000
vt 0.093750 0.531250
vt 0.187500 0.531250
vt 0.187500 1.000000
vt 0.093750 1.000000
vt 0.062500 0.437500
vt 0.046875 0.437500
vt 0.046875 0.343750
vt 0.062500 0.343750
vt 0.156250 0.343750
vt 0.140625 0.343750
vt 0.140625 0.437500
vt 0.156250 0.437500
vt 0.593750 0.625000
vt 0.609375 0.625000
vt 0.609375 0.687500
vt 0.593750 0.687500
vt 0.500000 0.796875
vt 0.562500 0.796875
vt 0.562500 0.859375
vt 0.500000 0.859375
vt 0.343750 0.343750
vt 0.359375 0.343750
vt 0.359375 0.406250
vt 0.343750 0.406250
vt 0.500000 0.734375
vt 0.562500 0.734375
vt 0.562500 0.796875
vt 0.500000 0.796875
vt 0.375000 0.406250
vt 0.359375 0.343750
vt 0.375000 0.343750
vt 0.609375 0.562500
vt 0.593750 0.562500
vt 0.593750 0.625000
vt 0.609375 0.625000
vt 0.593750 0.531250
vt 0.625000 0.531250
vt 0.625000 0.562500
vt 0.593750 0.562500
vt 0.531250 0.484375
vt 0.609375 0.484375
vt 0.609375 0.515625
vt 0.531250 0.515625
vt 0.593750 0.421875
vt 0.625000 0.421875
vt 0.625000 0.453125
vt 0.593750 0.453125
vt 0.531250 0.453125
vt 0.609375 0.453125
vt 0.609375 0.484375
vt 0.531250 0.484375
vt 0.437500 0.468750
vt 0.406250 0.468750
vt 0.406250 0.390625
vt 0.437500 0.390625
vt 0.562500 0.375000
vt 0.531250 0.375000
vt 0.531250 0.453125
vt 0.562500 0.453125
vt 0.437500 0.421875
vt 0.468750 0.421875
vt 0.468750 0.531250
vt 0.437500 0.531250
vt 0.500000 0.500000
vt 0.531250 0.500000
vt 0.531250 0.609375
vt 0.500000 0.609375
vt 0.500000 0.390625
vt 0.531250 0.390625
vt 0.531250 0.500000
vt 0.500000 0.500000
vt 0.062500 0.375000
vt 0.093750 0.375000
vt 0.093750 0.484375
vt 0.062500 0.484375
vt 0.625000 0.421875
vt 0.593750 0.421875
vt 0.593750 0.390625
vt 0.625000 0.390625
vt 0.031250 0.359375
vt 0.000000 0.359375
vt 0.000000 0.390625
vt 0.031250 0.390625
vt 0.312500 0.468750
vt 0.343750 0.468750
vt 0.343750 1.000000
vt 0.312500 1.000000
vt 0.343750 0.468750
vt 0.375000 0.468750
vt 0.375000 1.000000
vt 0.343750 1.000000
vt 0.375000 0.468750
vt 0.406250 0.468750
vt 0.406250 1.000000
vt 0.375000 1.000000
vt 0.406250 0.468750
vt 0.437500 0.468750
vt 0.437500 1.000000
vt 0.406250 1.000000
vt 0.125000 0.390625
vt 0.093750 0.390625
vt 0.093750 0.359375
vt 0.125000 0.359375
vt 0.640625 0.875000
vt 0.609375 0.875000
vt 0.609375 0.906250
vt 0.640625 0.906250
vt 0.593750 0.515625
vt 0.656250 0.515625
vt 0.656250 0.531250
vt 0.593750 0.531250
vt 0.281250 0.406250
vt 0.375000 0.406250
vt 0.375000 0.421875
vt 0.281250 0.421875
vt 0.609375 0.859375
vt 0.671875 0.859375
vt 0.671875 0.875000
vt 0.609375 0.875000
vt 0.593750 0.984375
vt 0.687500 0.984375
vt 0.687500 1.000000
vt 0.593750 1.000000
vt 0.062500 0.531250
vt 0.000000 0.531250
vt 0.000000 0.437500
vt 0.062500 0.437500
vt 0.531250 0.906250
vt 0.468750 0.906250
vt 0.468750 1.000000
vt 0.531250 1.000000
vt 0.218750 0.375000
vt 0.250000 0.375000
vt 0.250000 0.421875
vt 0.218750 0.421875
vt 0.062500 0.484375
vt 0.156250 0.484375
vt 0.156250 0.531250
vt 0.062500 0.531250
vt 0.375000 0.375000
vt 0.406250 0.375000
vt 0.406250 0.421875
vt 0.375000 0.421875
vt 0.468750 0.859375
vt 0.562500 0.859375
vt 0.562500 0.906250
vt 0.468750 0.906250
vt 0.500000 0.484375
vt 0.468750 0.484375
vt 0.468750 0.390625
vt 0.500000 0.390625
vt 0.281250 0.375000
vt 0.250000 0.375000
vt 0.250000 0.468750
vt 0.281250 0.468750
vt 0.609375 0.453125
vt 0.625000 0.453125
vt 0.625000 0.468750
vt 0.609375 0.468750
vt 0.500000 0.375000
vt 0.531250 0.375000
vt 0.531250 0.390625
vt 0.500000 0.390625
vt 0.593750 0.375000
vt 0.609375 0.375000
vt 0.609375 0.390625
vt 0.593750 0.390625
vt 0.609375 0.468750
vt 0.640625 0.468750
vt 0.640625 0.484375
vt 0.609375 0.484375
vt 0.578125 0.390625
vt 0.562500 0.390625
vt 0.562500 0.359375
vt 0.578125 0.359375
vt 0.593750 0.359375
vt 0.578125 0.359375
vt 0.578125 0.390625
vt 0.593750 0.390625
vt 0.000000 0.968750
vt 0.000000 0.968750
vt 0.000000 1.000000
vt 0.000000 1.000000
vt 0.609375 0.828125
vt 0.640625 0.828125
vt 0.640625 0.859375
vt 0.609375 0.859375
vt 0.000000 0.968750
vt 0.000000 0.968750
vt 0.000000 1.000000
vt 0.000000 1.000000
vt 0.609375 0.796875
vt 0.640625 0.796875
vt 0.640625 0.828125
vt 0.609375 0.828125
vt 0.000000 0.968750
vt 0.000000 0.968750
vt 0.000000 1.000000
vt 0.000000 1.000000
vt 0.609375 0.781250
vt 0.671875 0.781250
vt 0.671875 0.796875
vt 0.609375 0.796875
vt 0.406250 0.375000
vt 0.453125 0.375000
vt 0.453125 0.390625
vt 0.406250 0.390625
vt 0.609375 0.765625
vt 0.671875 0.765625
vt 0.671875 0.781250
vt 0.609375 0.781250
vt 0.453125 0.375000
vt 0.500000 0.375000
vt 0.500000 0.390625
vt 0.453125 0.390625
vt 0.343750 0.468750
vt 0.281250 0.468750
vt 0.281250 0.421875
vt 0.343750 0.421875
vt 0.406250 0.421875
vt 0.343750 0.421875
vt 0.343750 0.468750
vt 0.406250 0.468750
vt 0.609375 0.750000
vt 0.671875 0.750000
vt 0.671875 0.765625
vt 0.609375 0.765625
vt 0.609375 0.500000
vt 0.656250 0.500000
vt 0.656250 0.515625
vt 0.609375 0.515625
vt 0.609375 0.734375
vt 0.671875 0.734375
vt 0.671875 0.750000
vt 0.609375 0.750000
vt 0.609375 0.484375
vt 0.656250 0.484375
vt 0.656250 0.500000
vt 0.609375 0.500000
vt 0.593750 0.609375
vt 0.531250 0.609375
vt 0.531250 0.562500
vt 0.593750 0.562500
vt 0.593750 0.515625
vt 0.531250 0.515625
vt 0.531250 0.562500
vt 0.593750 0.562500
vt 0.609375 0.718750
vt 0.671875 0.718750
vt 0.671875 0.734375
vt 0.609375 0.734375
vt 0.281250 0.375000
vt 0.343750 0.375000
vt 0.343750 0.390625
vt 0.281250 0.390625
vt 0.609375 0.671875
vt 0.671875 0.671875
vt 0.671875 0.687500
vt 0.609375 0.687500
vt 0.609375 0.656250
vt 0.671875 0.656250
vt 0.671875 0.671875
vt 0.609375 0.671875
vt 0.562500 0.734375
vt 0.500000 0.734375
vt 0.500000 0.671875
vt 0.562500 0.671875
vt 0.562500 0.609375
vt 0.500000 0.609375
vt 0.500000 0.671875
vt 0.562500 0.671875
vn 0.0000 -1.0000 0.0000
vn 1.0000 0.0000 0.0000
vn 0.0000 1.0000 0.0000
vn -1.0000 0.0000 0.0000
vn 0.0000 0.0000 -1.0000
vn 0.0000 0.0000 1.0000
vn 0.0000 -0.3827 -0.9239
vn 0.0000 0.0000 -0.9239
vn 0.8413 0.0000 0.5406
vn 0.0000 0.0000 -0.6428
vn 0.7660 0.0000 -0.6428
vn 0.0000 0.0000 0.5406
vn -0.0000 0.3827 0.9239
vn 0.0000 0.0000 0.9239
vn -0.7660 -0.0000 -0.6428
vn -0.8413 -0.0000 0.5406
vn -0.0000 0.3827 -0.9239
vn -0.9595 -0.0000 0.2817
vn 0.0000 0.0000 -0.3421
vn -0.9397 -0.0000 -0.3421
vn 0.0000 0.0000 0.2817
vn 0.0000 -0.3827 0.9239
vn 0.9397 0.0000 -0.3421
vn 0.9595 0.0000 0.2817
vn 0.0000 -0.7071 -0.7071
vn 0.0000 0.7071 0.7071
vn 0.0000 0.7071 -0.7071
vn 0.0000 -0.7071 0.7071
vn -0.0000 0.3826 -0.9239
vn 0.9239 0.0000 -0.3827
vn -0.9239 0.0000 0.3827
vn 0.1464 0.3535 -0.9239
vn -0.1464 -0.3535 -0.9239
usemtl m_5ce964a5-da8e-25c1-fde9-be6957741c2c
s 1
f 1/1/1 2/2/1 3/3/1 4/4/1
f 5/5/2 1/6/2 4/7/2 6/8/2
f 7/9/3 5/10/3 6/11/3 8/12/3
f 2/13/4 7/14/4 8/15/4 3/16/4
f 8/17/5 6/18/5 4/19/5 3/20/5
f 2/21/6 1/22/6 5/23/6 7/24/6
f 9/25/7 10/26/8 11/27/7 12/28/8
f 13/29/9 9/30/10 12/31/11 14/32/12
f 15/33/13 13/34/14 14/35/13 16/36/14
f 10/37/15 15/38/12 16/39/16 11/40/10
f 16/41/7 14/42/7 12/43/7 11/44/7
f 10/45/13 9/46/13 13/47/13 15/48/13
f 17/49/17 18/50/8 19/51/17 20/52/8
f 21/53/18 17/54/19 20/55/20 22/56/21
f 23/57/22 21/58/14 22/59/22 24/60/14
f 18/61/23 23/62/21 24/63/24 19/64/19
f 24/65/17 22/66/17 20/67/17 19/68/17
f 18/69/22 17/70/22 21/71/22 23/72/22
f 25/73/1 26/74/1 27/75/1 28/76/1
f 29/77/2 25/78/2 28/79/2 30/80/2
f 31/81/3 29/82/3 30/83/3 32/84/3
f 26/85/4 31/86/4 32/87/4 27/88/4
f 32/89/5 30/90/5 28/91/5 27/92/5
f 26/93/6 25/94/6 29/95/6 31/96/6
f 33/97/1 34/98/1 35/99/1 36/100/1
f 37/101/2 33/102/2 36/103/2 38/104/2
f 39/105/3 37/106/3 38/107/3 40/108/3
f 34/109/4 39/110/4 40/111/4 35/112/4
f 40/113/5 38/114/5 36/115/5 35/116/5
f 34/117/6 33/118/6 37/119/6 39/120/6
f 41/121/1 42/122/1 43/123/1 44/124/1
f 45/125/2 41/126/2 44/127/2 46/128/2
f 47/129/3 45/130/3 46/131/3 48/132/3
f 42/133/4 47/134/4 48/135/4 43/136/4
f 48/137/5 46/138/5 44/139/5 43/140/5
f 42/141/6 41/142/6 45/143/6 47/144/6
f 49/145/1 50/146/1 51/147/1 52/148/1
f 53/149/2 49/150/2 52/151/2 54/152/2
f 55/153/3 53/154/3 54/155/3 56/156/3
f 50/157/4 55/158/4 56/159/4 51/160/4
f 56/161/5 54/162/5 52/163/5 51/164/5
f 50/165/6 49/166/6 53/167/6 55/168/6
f 57/169/1 58/170/1 59/171/1 60/172/1
f 61/173/2 57/174/2 60/175/2 62/176/2
f 63/177/3 61/178/3 62/179/3 64/180/3
f 58/181/4 63/182/4 64/183/4 59/184/4
f 64/185/5 62/186/5 60/187/5 59/188/5
f 58/189/6 57/190/6 61/191/6 63/192/6
f 65/193/25 66/194/25 67/195/25 68/196/25
f 69/197/2 65/198/2 68/199/2 70/200/2
f 71/201/26 69/202/26 70/203/26 72/204/26
f 66/205/4 71/206/4 72/207/4 67/208/4
f 72/209/27 70/203/27 68/210/27 67/211/27
f 66/212/28 65/213/28 69/214/28 71/215/28
f 73/216/25 74/217/25 75/218/25 76/219/25
f 77/220/2 73/221/2 76/222/2 78/223/2
f 79/224/26 77/225/26 78/226/26 80/227/26
f 74/228/4 79/229/4 80/230/4 75/231/4
f 80/232/27 78/233/27 76/234/27 75/235/27
f 74/236/28 73/237/28 77/238/28 79/239/28
f 81/240/25 82/241/25 83/242/25 84/243/25
f 85/244/2 81/245/2 84/246/2 86/247/2
f 87/248/26 85/249/26 86/250/26 88/251/26
f 82/252/4 87/253/4 88/254/4 83/255/4
f 88/256/27 86/257/27 84/258/27 83/259/27
f 82/260/28 81/261/28 85/262/28 87/263/28
f 89/264/1 90/265/1 91/266/1 92/267/1
f 93/268/2 89/269/2 92/270/2 94/271/2
f 95/272/3 93/273/3 94/274/3 96/275/3
f 90/276/4 95/277/4 96/278/4 91/279/4
f 96/280/5 94/281/5 92/282/5 91/283/5
f 90/284/6 89/285/6 93/286/6 95/287/6
f 97/288/1 98/289/1 99/290/1 100/291/1
f 101/292/2 97/293/2 100/294/2 102/295/2
f 103/296/3 101/297/3 102/298/3 104/299/3
f 98/300/4 103/301/4 104/302/4 99/303/4
f 104/304/5 102/305/5 100/306/5 99/307/5
f 98/308/6 97/309/6 101/310/6 103/311/6
f 105/312/1 106/313/1 107/314/1 108/315/1
f 109/316/2 105/317/2 108/318/2 110/319/2
f 111/320/3 109/321/3 110/322/3 112/323/3
f 106/324/4 111/325/4 112/326/4 107/327/4
f 112/328/5 110/329/5 108/330/5 107/331/5
f 106/332/6 105/333/6 109/334/6 111/335/6
f 113/336/1 114/337/1 115/338/1 116/339/1
f 117/340/2 113/341/2 116/342/2 118/343/2
f 119/344/3 117/345/3 118/346/3 120/347/3
f 114/348/4 119/349/4 120/350/4 115/351/4
f 120/352/5 118/353/5 116/354/5 115/355/5
f 114/356/6 113/357/6 117/358/6 119/359/6
f 121/360/8 122/361/29 123/362/8 124/363/17
f 125/364/30 121/365/30 124/366/30 126/367/30
f 127/368/6 125/369/6 126/370/6 128/371/6
f 122/372/31 127/373/31 128/374/31 123/375/31
f 128/371/8 126/370/32 124/376/8 123/377/33
f 122/361/8 121/360/33 125/378/8 127/379/32
f 129/380/28 130/381/28 131/382/28 132/383/28
f 133/384/2 129/385/2 132/386/2 134/387/2
f 135/388/27 133/389/27 134/390/27 136/391/27
f 130/392/4 135/393/4 136/394/4 131/395/4
f 136/396/25 134/397/25 132/398/25 131/399/25
f 130/400/26 129/401/26 133/402/26 135/403/26
f 137/404/25 138/405/25 139/406/25 140/407/25
f 141/408/2 137/409/2 140/410/2 142/411/2
f 143/412/26 141/413/26 142/414/26 144/415/26
f 138/416/4 143/417/4 144/418/4 139/419/4
f 144/420/27 142/421/27 140/422/27 139/423/27
f 138/424/28 137/425/28 141/426/28 143/427/28
f 145/428/1 146/429/1 147/430/1 148/431/1
f 149/432/2 145/433/2 148/434/2 150/435/2
f 151/436/3 149/437/3 150/438/3 152/439/3
f 146/440/4 151/441/4 152/442/4 147/443/4
f 152/444/5 150/445/5 148/446/5 147/447/5
f 146/448/6 145/449/6 149/450/6 151/451/6
